<svg xmlns="http://www.w3.org/2000/svg" xmlns:xlink="http://www.w3.org/1999/xlink" width="431.546" height="273.003" viewBox="0 0 114.18 72.232"><use xlink:href="#a" width="100%" height="100%" transform="translate(55.547)"/><use xlink:href="#b" width="100%" height="100%" transform="translate(55.547)"/><path id="a" fill="#fff" stroke-width="2.144" d="M3.334 3.396h51.909v65.427H3.334z" style="paint-order:markers fill stroke"/><g id="b" transform="translate(.284 .284)scale(2.1436)"><use xlink:href="#c" width="100%" height="100%" transform="matrix(0 -1.2625 1 0 -5.393 33.821)"/><g id="g"><g id="f"><use xlink:href="#d" width="100%" height="100%" transform="matrix(0 -1.2625 1 0 -22.345 33.821)"/><g id="e"><use xlink:href="#c" width="100%" height="100%" transform="matrix(0 -1.2625 1 0 -29.609 33.821)"/><use xlink:href="#c" width="100%" height="100%" transform="matrix(0 -1.2625 1 0 -28.398 33.821)"/></g><use xlink:href="#e" width="100%" height="100%" transform="translate(2.422)"/></g><use xlink:href="#f" width="100%" height="100%" transform="translate(6.054)"/></g><use xlink:href="#g" width="100%" height="100%" transform="translate(12.108)"/><g id="j"><g id="i"><path id="d" fill="none" stroke="#e6e6e6" stroke-linecap="round" stroke-linejoin="round" stroke-miterlimit="4.3" stroke-width=".118" d="M25.639 28.611H1.463" style="paint-order:markers fill stroke"/><use xlink:href="#h" width="100%" height="100%" transform="translate(0 -3.632)"/><use xlink:href="#h" width="100%" height="100%" transform="translate(0 -6.053)"/></g><use xlink:href="#i" width="100%" height="100%" transform="translate(0 -6.054)"/></g><use xlink:href="#j" width="100%" height="100%" transform="translate(-.04 -12.101)"/><use xlink:href="#c" width="100%" height="100%" transform="translate(0 -29.059)"/><use xlink:href="#d" width="100%" height="100%" transform="translate(0 -24.216)"/><use xlink:href="#c" width="100%" height="100%" transform="translate(-.001 -27.848)"/><g id="h"><path id="c" fill="none" stroke="#e6e6e6" stroke-linecap="round" stroke-linejoin="round" stroke-miterlimit="4.3" stroke-width=".047" d="M25.639 31.032H1.463" style="paint-order:markers fill stroke"/><use xlink:href="#c" width="100%" height="100%" transform="translate(0 -1.211)"/></g></g><g stroke-width=".126" font-family="sans-serif" font-size="5.037" letter-spacing="0" word-spacing="0"><text xml:space="preserve" x="24.082" y="61.279" style="line-height:1.25"><tspan x="24.082" y="61.279" font-weight="bold">rS</tspan></text><text xml:space="preserve" x="81.185" y="49.009" style="line-height:1.25"><tspan x="81.185" y="49.009" font-weight="bold">R</tspan></text><text xml:space="preserve" x="6.185" y="9.906" style="line-height:1.25"><tspan x="6.185" y="9.906" font-weight="bold">V1</tspan></text><text xml:space="preserve" x="62.326" y="9.832" style="line-height:1.25"><tspan x="62.326" y="9.832" font-weight="bold">V6</tspan></text></g><path fill="none" stroke="#00f" stroke-linejoin="round" stroke-miterlimit="4.3" stroke-width=".567" d="M3.334 35.674h5.66c1.424 0 2.152 0 3.08.496.926.496 2.052 1.488 3.003 1.487s1.728-.993 2.462-1.488 1.43-.495 2.197-.495c.769 0 1.608 0 2.126-.236.517-.235.71-.705.87-.52.159.183.285 1.02 1.124 5.564.838 4.543 2.39 12.794 3.524 14.208s1.852-4.008 2.364-8.316.818-7.505 1.268-9.103 1.042-1.597 1.438-1.597.594 0 1.48-.575c.885-.576 2.455-1.724 4.307-3.21 1.851-1.487 3.981-3.31 5.68-3.334 1.698-.023 2.96 1.75 3.947 3.237s1.695 2.684 2.108 3.283c.414.6.542.6 1.29.6h3.989" style="paint-order:markers fill stroke"/><path fill="none" stroke="#00f" stroke-linejoin="round" stroke-miterlimit="4.3" stroke-width=".568" d="M58.894 35.674h6.59c1.505 0 1.974 0 2.625-.482.65-.483 1.483-1.447 2.395-1.447.913 0 1.905.965 2.625 1.447s1.167.482 1.806.482h2.153c.68 0 1.203 0 1.667-1.131s.867-3.393 1.148-5.616c.28-2.224.439-4.409.585-5.625s.279-1.463.407-1.491.25.163.397.404c.147.24.318.53.492.78.173.249.348.458.485.447.138-.011.238-.243.397-.603.158-.36.374-.848.53-1.197.155-.35.248-.56.357-.592.11-.032.236.115.472 1.459.237 1.344.585 3.885.923 6.279.338 2.393.666 4.64 1.185 5.763s1.228 1.123 1.844 1.123 1.139 0 1.945.754c.805.754 1.894 2.263 3.378 3.79 1.483 1.528 3.36 3.075 5.016 3.202 1.656.128 3.09-1.164 3.835-2.332s.805-2.214 1.13-3.097c.324-.882.91-1.6 1.467-1.958.555-.36 1.078-.36 2.082-.36h3.971" style="paint-order:markers fill stroke"/></svg>