<svg xmlns="http://www.w3.org/2000/svg" width="303" height="103" viewBox="0 0 80.169 27.252"><defs><clipPath id="a" clipPathUnits="userSpaceOnUse"><path d="M0 0h80.169v27.252H0z" style="fill:#fff;stroke-width:1.14739;stroke-miterlimit:2.5"/></clipPath></defs><g clip-path="url(#a)"><path d="M.265 13.626c.226-1.022.428-2.05.717-3.052.19-.66.444-1.288.718-1.926.204-.476.682-.248.876.14.452.9.68 1.877.917 2.84.234.948.442 1.903.678 2.852.209.84.383 1.699.717 2.494.142.337.249.739.558.934.287.18.523-.131.638-.346.365-.68.564-1.453.757-2.209.278-1.085.51-2.18.758-3.27.196-.866.361-1.74.638-2.584.2-.612.286-1.363.797-1.785.349-.288.636.236.777.513.245.482.394 1.011.538 1.534.3 1.09.542 2.201.797 3.307.21.907.392 1.822.678 2.703.186.574.306 1.202.717 1.665.407.459.776-.233.917-.57.403-.968.637-1.984.877-2.997.255-1.073.48-2.156.757-3.226.201-.775.345-1.586.718-2.288.135-.253.24-.671.558-.657.329.015.482.348.598.605.37.82.585 1.715.797 2.596.24.993.444 1.994.678 2.986.264 1.124.396 2.301.916 3.34.16.318.28.958.678.877.392-.08.546-.517.678-.84.252-.618.43-1.267.597-1.918.284-1.1.528-2.215.798-3.32.168-.688.312-1.385.558-2.047.18-.487.234-1.15.717-1.4.457-.237.71.43.837.75.359.902.579 1.841.797 2.781.235 1.006.444 2.02.678 3.028.21.908.395 1.83.718 2.7.143.389.293.784.558 1.101.194.233.47.051.617-.145.263-.35.405-.79.538-1.212.32-1.007.557-2.04.798-3.068.194-.828.36-1.662.598-2.478.244-.839.417-1.742.936-2.47.22-.307.58-.07.738.204.278.487.444 1.03.598 1.57.308 1.085.548 2.194.797 3.3.214.949.399 1.906.677 2.835.208.693.353 1.43.798 2.02.373.497.77-.158.916-.5.365-.853.581-1.749.798-2.644.235-.974.444-1.956.677-2.933.211-.883.394-1.78.718-2.624.143-.375.283-.765.558-1.057.21-.223.477-.013.617.184.284.398.435.893.578 1.367.315 1.037.554 2.097.798 3.152.203.882.376 1.771.637 2.638.228.755.427 1.56.877 2.225.204.302.565.069.718-.196.28-.485.445-1.027.598-1.567.31-1.092.55-2.21.797-3.322.215-.964.403-1.936.677-2.882.21-.719.384-1.46.798-2.102.355-.552.797.092.956.464.36.842.58 1.725.798 2.61.246.998.464 2.006.717 3.005.206.813.369 1.65.717 2.407.14.304.228.708.558.827.297.106.487-.193.598-.408.389-.748.594-1.59.798-2.413.245-.987.452-1.982.677-2.972.262-1.152.446-2.33.877-3.434.173-.442.24-1.104.698-1.247.366-.115.574.319.697.582.264.56.436 1.165.598 1.769.308 1.148.56 2.315.837 3.472.182.76.34 1.529.598 2.264.182.518.238 1.19.718 1.499.5.322.78-.455.916-.807.312-.805.517-1.64.718-2.477.262-1.097.492-2.204.757-3.303.207-.857.362-1.74.718-2.54.156-.354.231-.889.637-.971.31-.063.484.251.598.48.416.838.652 1.765.857 2.678.204.905.403 1.81.618 2.71.288 1.208.38 2.51 1.016 3.588.15.251.26.697.578.66.376-.044.54-.436.658-.733.272-.688.474-1.405.658-2.129.297-1.17.55-2.354.837-3.526.166-.68.307-1.37.558-2.022.176-.458.216-1.182.717-1.315.533-.142.74.595.877.97.267.73.458 1.483.638 2.239.252 1.056.473 2.122.718 3.182.212.923.388 1.861.717 2.744.163.438.27.932.638 1.24.258.217.516-.054.637-.266.455-.794.69-1.714.897-2.604.204-.872.402-1.743.618-2.61.287-1.155.37-2.416 1.017-3.429.145-.227.28-.655.577-.572.382.106.539.513.658.838.27.73.474 1.486.658 2.248.269 1.111.503 2.233.757 3.348.17.748.314 1.504.558 2.23.203.6.21 1.452.797 1.752.538.275.785-.552.937-.93.25-.62.415-1.272.578-1.921.253-1.006.476-2.022.718-3.033a46 46 0 0 1 .398-1.577" clip-path="none" style="fill:none;stroke:#000;stroke-width:.529167"/></g></svg>