<svg xmlns="http://www.w3.org/2000/svg" viewBox="0 0 16 16"><path d="M2.668 0C2.324 0 2 .338 2 .697v14.607c0 .338.344.697.668.697h10.664c.324 0 .668-.359.668-.697V4l-4-4z" style="fill:#7099c3;fill-opacity:1"/><g style="fill:#fff"><path d="M4.73 7.16v.732h6.54v-.733zM4.364 8.62v.732h7.27V8.62zM4.73 10.078v.733h6.54v-.733z"/><path d="M7.636 5.332v7.305h.73V5.332z"/></g><path d="m10.583 3.332.015.02.04-.02zm.03.668L14 7.664V4z" style="fill:#000;fill-opacity:.196"/><g style="fill:none;stroke:#fff"><g style="stroke-width:2"><path d="M20.448 32.995c-2.01-6-2.01-11.988 0-17.99M27.466 32.995c2.01-4.999 2.01-11.988 0-17.99" transform="matrix(.36357 0 0 .36533 -.726 .217)"/></g><path d="M33.06 27.317a9.095 9.095 0 0 1-9.102 9.102 9.095 9.095 0 0 1-9.102-9.102 9.095 9.095 0 0 1 9.102-9.102 9.095 9.095 0 0 1 9.102 9.102z" style="stroke-linecap:round;stroke-width:1.821" transform="matrix(.39936 0 0 .4013 -1.566 -1.977)"/></g><path d="m10 0 3.996 4h-3.384c-.299 0-.613-.317-.613-.616z" style="fill:#fff;fill-opacity:.392"/></svg>